<svg width="224" height="19" viewBox="0 0 224 19" fill="none" xmlns="http://www.w3.org/2000/svg">
<g clip-path="url(#clip0_840_11)">
<path d="M55.4897 1.03217C54.3548 1.17448 53.4049 1.64053 52.6009 2.45167C51.8787 3.17742 51.4447 3.94587 51.1957 4.94556C50.7545 6.67813 51.0747 8.38579 52.1349 9.99028C52.8144 11.0184 53.6931 11.9612 55.3047 13.3985C56.3293 14.3128 59.4565 16.981 59.6094 17.07C59.7517 17.1553 59.8051 17.166 60.1075 17.166C60.4099 17.166 60.4633 17.1553 60.6056 17.07C60.7586 16.981 63.8928 14.3092 64.9103 13.3985C66.529 11.9541 67.4006 11.0149 68.0802 9.99028C69.1403 8.38579 69.4605 6.67813 69.0194 4.94556C68.7703 3.94587 68.3363 3.17742 67.6141 2.45167C66.8955 1.72947 66.127 1.31323 65.1202 1.09977C64.615 0.993041 63.6829 0.982368 63.2418 1.08198C62.0108 1.3488 61.0681 1.96427 60.2071 3.06002L60.1075 3.18454L60.0115 3.06002C59.1612 1.98562 58.2326 1.37015 57.048 1.09977C56.6957 1.01794 55.8846 0.982368 55.4897 1.03217Z" fill="#A47764"/>
</g>
<g clip-path="url(#clip1_840_11)">
<path d="M4.48971 1.03217C3.35483 1.17448 2.40494 1.64053 1.60092 2.45167C0.878718 3.17742 0.444687 3.94587 0.195653 4.94556C-0.245493 6.67813 0.0746939 8.38579 1.13487 9.99028C1.81437 11.0184 2.69311 11.9612 4.30471 13.3985C5.32931 14.3128 8.45646 16.981 8.60944 17.07C8.75175 17.1553 8.80511 17.166 9.10751 17.166C9.40991 17.166 9.46327 17.1553 9.60558 17.07C9.75856 16.981 12.8928 14.3092 13.9103 13.3985C15.529 11.9541 16.4006 11.0149 17.0802 9.99028C18.1403 8.38579 18.4605 6.67813 18.0194 4.94556C17.7703 3.94587 17.3363 3.17742 16.6141 2.45167C15.8955 1.72947 15.127 1.31323 14.1202 1.09977C13.615 0.993041 12.6829 0.982368 12.2418 1.08198C11.0108 1.3488 10.0681 1.96427 9.20712 3.06002L9.10751 3.18454L9.01145 3.06002C8.16118 1.98562 7.23264 1.37015 6.04795 1.09977C5.69575 1.01794 4.88461 0.982368 4.48971 1.03217Z" fill="#A47764"/>
</g>
<g clip-path="url(#clip2_840_11)">
<path d="M106.882 1.03217C105.747 1.17448 104.797 1.64053 103.993 2.45167C103.271 3.17742 102.837 3.94587 102.588 4.94556C102.147 6.67813 102.467 8.38579 103.527 9.99028C104.207 11.0184 105.086 11.9612 106.697 13.3985C107.722 14.3128 110.849 16.981 111.002 17.07C111.144 17.1553 111.198 17.166 111.5 17.166C111.802 17.166 111.856 17.1553 111.998 17.07C112.151 16.981 115.285 14.3092 116.303 13.3985C117.921 11.9541 118.793 11.0149 119.473 9.99028C120.533 8.38579 120.853 6.67813 120.412 4.94556C120.163 3.94587 119.729 3.17742 119.007 2.45167C118.288 1.72947 117.519 1.31323 116.513 1.09977C116.007 0.993041 115.075 0.982368 114.634 1.08198C113.403 1.3488 112.461 1.96427 111.6 3.06002L111.5 3.18454L111.404 3.06002C110.554 1.98562 109.625 1.37015 108.44 1.09977C108.088 1.01794 107.277 0.982368 106.882 1.03217Z" fill="#A47764"/>
</g>
<g clip-path="url(#clip3_840_11)">
<path d="M158.275 1.03217C157.14 1.17448 156.19 1.64053 155.386 2.45167C154.664 3.17742 154.23 3.94587 153.981 4.94556C153.539 6.67813 153.86 8.38579 154.92 9.99028C155.599 11.0184 156.478 11.9612 158.09 13.3985C159.114 14.3128 162.241 16.981 162.394 17.07C162.537 17.1553 162.59 17.166 162.892 17.166C163.195 17.166 163.248 17.1553 163.39 17.07C163.543 16.981 166.678 14.3092 167.695 13.3985C169.314 11.9541 170.186 11.0149 170.865 9.99028C171.925 8.38579 172.245 6.67813 171.804 4.94556C171.555 3.94587 171.121 3.17742 170.399 2.45167C169.68 1.72947 168.912 1.31323 167.905 1.09977C167.4 0.993041 166.468 0.982368 166.027 1.08198C164.796 1.3488 163.853 1.96427 162.992 3.06002L162.892 3.18454L162.796 3.06002C161.946 1.98562 161.018 1.37015 159.833 1.09977C159.481 1.01794 158.67 0.982368 158.275 1.03217Z" fill="#A47764"/>
</g>
<g clip-path="url(#clip4_840_11)">
<path d="M209.49 1.03217C208.355 1.17448 207.405 1.64053 206.601 2.45167C205.879 3.17742 205.445 3.94587 205.196 4.94556C204.755 6.67813 205.075 8.38579 206.135 9.99028C206.814 11.0184 207.693 11.9612 209.305 13.3985C210.329 14.3128 213.456 16.981 213.609 17.07C213.752 17.1553 213.805 17.166 214.108 17.166C214.41 17.166 214.463 17.1553 214.606 17.07C214.759 16.981 217.893 14.3092 218.91 13.3985C220.529 11.9541 221.401 11.0149 222.08 9.99028C223.14 8.38579 223.461 6.67813 223.019 4.94556C222.77 3.94587 222.336 3.17742 221.614 2.45167C220.895 1.72947 220.127 1.31323 219.12 1.09977C218.615 0.993041 217.683 0.982368 217.242 1.08198C216.011 1.3488 215.068 1.96427 214.207 3.06002L214.108 3.18454L214.011 3.06002C213.161 1.98562 212.233 1.37015 211.048 1.09977C210.696 1.01794 209.885 0.982368 209.49 1.03217Z" fill="#A47764"/>
</g>
<defs>
<clipPath id="clip0_840_11">
<rect width="18.2151" height="18.2151" fill="white" transform="translate(51)"/>
</clipPath>
<clipPath id="clip1_840_11">
<rect width="18.2151" height="18.2151" fill="white"/>
</clipPath>
<clipPath id="clip2_840_11">
<rect width="18.2151" height="18.2151" fill="white" transform="translate(102.392)"/>
</clipPath>
<clipPath id="clip3_840_11">
<rect width="18.2151" height="18.2151" fill="white" transform="translate(153.785)"/>
</clipPath>
<clipPath id="clip4_840_11">
<rect width="18.2151" height="18.2151" fill="white" transform="translate(205)"/>
</clipPath>
</defs>
</svg>
