<svg width="121" height="19" viewBox="0 0 121 19" fill="none" xmlns="http://www.w3.org/2000/svg">
<g clip-path="url(#clip0_840_11)">
<path d="M4.48971 1.03217C3.35483 1.17448 2.40494 1.64053 1.60092 2.45167C0.878718 3.17742 0.444687 3.94587 0.195653 4.94556C-0.245493 6.67813 0.0746939 8.38579 1.13487 9.99028C1.81437 11.0184 2.69311 11.9612 4.30471 13.3985C5.32931 14.3128 8.45646 16.981 8.60944 17.07C8.75175 17.1553 8.80511 17.166 9.10751 17.166C9.40991 17.166 9.46327 17.1553 9.60558 17.07C9.75856 16.981 12.8928 14.3092 13.9103 13.3985C15.529 11.9541 16.4006 11.0149 17.0802 9.99028C18.1403 8.38579 18.4605 6.67813 18.0194 4.94556C17.7703 3.94587 17.3363 3.17742 16.6141 2.45167C15.8955 1.72947 15.127 1.31323 14.1202 1.09977C13.615 0.993041 12.6829 0.982368 12.2418 1.08198C11.0108 1.3488 10.0681 1.96427 9.20712 3.06002L9.10751 3.18454L9.01145 3.06002C8.16118 1.98562 7.23264 1.37015 6.04795 1.09977C5.69575 1.01794 4.88461 0.982368 4.48971 1.03217Z" fill="#A47764"/>
</g>
<g clip-path="url(#clip1_840_11)">
<path d="M55.8822 1.03217C54.7473 1.17448 53.7974 1.64053 52.9934 2.45167C52.2712 3.17742 51.8371 3.94587 51.5881 4.94556C51.147 6.67813 51.4671 8.38579 52.5273 9.99028C53.2068 11.0184 54.0856 11.9612 55.6972 13.3985C56.7218 14.3128 59.8489 16.981 60.0019 17.07C60.1442 17.1553 60.1976 17.166 60.5 17.166C60.8024 17.166 60.8557 17.1553 60.998 17.07C61.151 16.981 64.2853 14.3092 65.3028 13.3985C66.9215 11.9541 67.7931 11.0149 68.4726 9.99028C69.5328 8.38579 69.853 6.67813 69.4118 4.94556C69.1628 3.94587 68.7288 3.17742 68.0066 2.45167C67.2879 1.72947 66.5195 1.31323 65.5127 1.09977C65.0075 0.993041 64.0754 0.982368 63.6342 1.08198C62.4033 1.3488 61.4605 1.96427 60.5996 3.06002L60.5 3.18454L60.4039 3.06002C59.5536 1.98562 58.6251 1.37015 57.4404 1.09977C57.0882 1.01794 56.2771 0.982368 55.8822 1.03217Z" fill="#A47764"/>
</g>
<g clip-path="url(#clip2_840_11)">
<path d="M107.275 1.03217C106.14 1.17448 105.19 1.64053 104.386 2.45167C103.664 3.17742 103.23 3.94587 102.981 4.94556C102.539 6.67813 102.86 8.38579 103.92 9.99028C104.599 11.0184 105.478 11.9612 107.09 13.3985C108.114 14.3128 111.241 16.981 111.394 17.07C111.537 17.1553 111.59 17.166 111.892 17.166C112.195 17.166 112.248 17.1553 112.39 17.07C112.543 16.981 115.678 14.3092 116.695 13.3985C118.314 11.9541 119.186 11.0149 119.865 9.99028C120.925 8.38579 121.245 6.67813 120.804 4.94556C120.555 3.94587 120.121 3.17742 119.399 2.45167C118.68 1.72947 117.912 1.31323 116.905 1.09977C116.4 0.993041 115.468 0.982368 115.027 1.08198C113.796 1.3488 112.853 1.96427 111.992 3.06002L111.892 3.18454L111.796 3.06002C110.946 1.98562 110.018 1.37015 108.833 1.09977C108.481 1.01794 107.67 0.982368 107.275 1.03217Z" fill="#A47764"/>
</g>
<defs>
<clipPath id="clip0_840_11">
<rect width="18.2151" height="18.2151" fill="white"/>
</clipPath>
<clipPath id="clip1_840_11">
<rect width="18.2151" height="18.2151" fill="white" transform="translate(51.3925)"/>
</clipPath>
<clipPath id="clip2_840_11">
<rect width="18.2151" height="18.2151" fill="white" transform="translate(102.785)"/>
</clipPath>
</defs>
</svg>
