<svg width="186" height="28" viewBox="0 0 186 28" fill="none" xmlns="http://www.w3.org/2000/svg">
<path d="M6.90153 1.58594C5.157 1.80469 3.69685 2.52109 2.46091 3.76797C1.35075 4.88359 0.683564 6.06484 0.300751 7.60156C-0.377374 10.2648 0.114814 12.8898 1.7445 15.3563C2.78903 16.9367 4.13981 18.3859 6.61716 20.5953C8.19216 22.0008 12.9992 26.1023 13.2343 26.2391C13.4531 26.3703 13.5351 26.3867 14 26.3867C14.4648 26.3867 14.5468 26.3703 14.7656 26.2391C15.0008 26.1023 19.8187 21.9953 21.3828 20.5953C23.8711 18.375 25.2109 16.9313 26.2554 15.3563C27.8851 12.8898 28.3773 10.2648 27.6992 7.60156C27.3164 6.06484 26.6492 4.88359 25.539 3.76797C24.4343 2.65781 23.2531 2.01797 21.7054 1.68984C20.9289 1.52578 19.4961 1.50938 18.8179 1.6625C16.9258 2.07266 15.4765 3.01875 14.1531 4.70313L14 4.89453L13.8523 4.70313C12.5453 3.05156 11.1179 2.10547 9.29685 1.68984C8.75544 1.56406 7.50856 1.50938 6.90153 1.58594Z" fill="#A47764"/>
<path d="M85.9015 1.58594C84.157 1.80469 82.6968 2.52109 81.4609 3.76797C80.3508 4.88359 79.6836 6.06484 79.3008 7.60156C78.6226 10.2648 79.1148 12.8898 80.7445 15.3563C81.789 16.9367 83.1398 18.3859 85.6172 20.5953C87.1922 22.0008 91.9992 26.1023 92.2343 26.2391C92.4531 26.3703 92.5351 26.3867 93 26.3867C93.4648 26.3867 93.5468 26.3703 93.7656 26.2391C94.0008 26.1023 98.8187 21.9953 100.383 20.5953C102.871 18.375 104.211 16.9313 105.255 15.3563C106.885 12.8898 107.377 10.2648 106.699 7.60156C106.316 6.06484 105.649 4.88359 104.539 3.76797C103.434 2.65781 102.253 2.01797 100.705 1.68984C99.9289 1.52578 98.4961 1.50938 97.8179 1.6625C95.9258 2.07266 94.4765 3.01875 93.1531 4.70313L93 4.89453L92.8523 4.70313C91.5453 3.05156 90.1179 2.10547 88.2968 1.68984C87.7554 1.56406 86.5086 1.50938 85.9015 1.58594Z" fill="#A47764"/>
<path d="M164.902 1.58594C163.157 1.80469 161.697 2.52109 160.461 3.76797C159.351 4.88359 158.684 6.06484 158.301 7.60156C157.623 10.2648 158.115 12.8898 159.745 15.3563C160.789 16.9367 162.14 18.3859 164.617 20.5953C166.192 22.0008 170.999 26.1023 171.234 26.2391C171.453 26.3703 171.535 26.3867 172 26.3867C172.465 26.3867 172.547 26.3703 172.766 26.2391C173.001 26.1023 177.819 21.9953 179.383 20.5953C181.871 18.375 183.211 16.9313 184.256 15.3563C185.885 12.8898 186.377 10.2648 185.699 7.60156C185.317 6.06484 184.649 4.88359 183.539 3.76797C182.434 2.65781 181.253 2.01797 179.706 1.68984C178.929 1.52578 177.496 1.50938 176.818 1.6625C174.926 2.07266 173.477 3.01875 172.153 4.70313L172 4.89453L171.852 4.70313C170.545 3.05156 169.118 2.10547 167.297 1.68984C166.756 1.56406 165.509 1.50938 164.902 1.58594Z" fill="#A47764"/>
</svg>
